<svg id="visual" viewBox="0 0 960 300" width="960" height="300" xmlns="http://www.w3.org/2000/svg" xmlns:xlink="http://www.w3.org/1999/xlink" version="1.1"><rect x="0" y="0" width="960" height="300" fill="#059978"></rect><path d="M0 91L22.8 91C45.7 91 91.3 91 137 95.8C182.7 100.7 228.3 110.3 274 115.7C319.7 121 365.3 122 411.2 118.3C457 114.7 503 106.3 548.8 100.2C594.7 94 640.3 90 686 86.3C731.7 82.7 777.3 79.3 823 83C868.7 86.7 914.3 97.3 937.2 102.7L960 108L960 0L937.2 0C914.3 0 868.7 0 823 0C777.3 0 731.7 0 686 0C640.3 0 594.7 0 548.8 0C503 0 457 0 411.2 0C365.3 0 319.7 0 274 0C228.3 0 182.7 0 137 0C91.3 0 45.7 0 22.8 0L0 0Z" fill="#03644e"></path><path d="M0 99L22.8 92.8C45.7 86.7 91.3 74.3 137 71.7C182.7 69 228.3 76 274 78C319.7 80 365.3 77 411.2 74.8C457 72.7 503 71.3 548.8 69.5C594.7 67.7 640.3 65.3 686 65.5C731.7 65.7 777.3 68.3 823 71.8C868.7 75.3 914.3 79.7 937.2 81.8L960 84L960 0L937.2 0C914.3 0 868.7 0 823 0C777.3 0 731.7 0 686 0C640.3 0 594.7 0 548.8 0C503 0 457 0 411.2 0C365.3 0 319.7 0 274 0C228.3 0 182.7 0 137 0C91.3 0 45.7 0 22.8 0L0 0Z" fill="#024d39"></path><path d="M0 76L22.8 74.3C45.7 72.7 91.3 69.3 137 66.2C182.7 63 228.3 60 274 56.5C319.7 53 365.3 49 411.2 47C457 45 503 45 548.8 50.8C594.7 56.7 640.3 68.3 686 74C731.7 79.7 777.3 79.3 823 78.2C868.7 77 914.3 75 937.2 74L960 73L960 0L937.2 0C914.3 0 868.7 0 823 0C777.3 0 731.7 0 686 0C640.3 0 594.7 0 548.8 0C503 0 457 0 411.2 0C365.3 0 319.7 0 274 0C228.3 0 182.7 0 137 0C91.3 0 45.7 0 22.8 0L0 0Z" fill="#003725"></path><path d="M0 44L22.8 44.8C45.7 45.7 91.3 47.3 137 45.2C182.7 43 228.3 37 274 35.3C319.7 33.7 365.3 36.3 411.2 39.2C457 42 503 45 548.8 46.7C594.7 48.3 640.3 48.7 686 49.7C731.7 50.7 777.3 52.3 823 53.7C868.7 55 914.3 56 937.2 56.5L960 57L960 0L937.2 0C914.3 0 868.7 0 823 0C777.3 0 731.7 0 686 0C640.3 0 594.7 0 548.8 0C503 0 457 0 411.2 0C365.3 0 319.7 0 274 0C228.3 0 182.7 0 137 0C91.3 0 45.7 0 22.8 0L0 0Z" fill="#002211"></path><path d="M0 22L22.8 20.8C45.7 19.7 91.3 17.3 137 18.2C182.7 19 228.3 23 274 22.5C319.7 22 365.3 17 411.2 17.2C457 17.3 503 22.7 548.8 25.8C594.7 29 640.3 30 686 30.7C731.7 31.3 777.3 31.7 823 28.8C868.7 26 914.3 20 937.2 17L960 14L960 0L937.2 0C914.3 0 868.7 0 823 0C777.3 0 731.7 0 686 0C640.3 0 594.7 0 548.8 0C503 0 457 0 411.2 0C365.3 0 319.7 0 274 0C228.3 0 182.7 0 137 0C91.3 0 45.7 0 22.8 0L0 0Z" fill="#000000"></path></svg>